<svg width="29" height="28" viewBox="0 0 29 28" fill="none" xmlns="http://www.w3.org/2000/svg"><path fill-rule="evenodd" clip-rule="evenodd" d="M22.5664 5.25008H6.23307C4.62224 5.25008 3.31641 6.55592 3.31641 8.16675V22.1667C3.31641 23.7776 4.62224 25.0834 6.23307 25.0834H22.5664C24.1772 25.0834 25.4831 23.7776 25.4831 22.1667V8.16675C25.4831 6.55592 24.1772 5.25008 22.5664 5.25008ZM6.23307 3.50008C3.65574 3.50008 1.56641 5.58942 1.56641 8.16675V22.1667C1.56641 24.7441 3.65574 26.8334 6.23307 26.8334H22.5664C25.1437 26.8334 27.2331 24.7441 27.2331 22.1667V8.16675C27.2331 5.58942 25.1437 3.50008 22.5664 3.50008H6.23307Z" fill="#737682"></path><path d="M7.39974 2.04175C7.39974 1.5585 7.79149 1.16675 8.27474 1.16675C8.75799 1.16675 9.14974 1.5585 9.14974 2.04175V7.29175C9.14974 7.775 8.75799 8.16675 8.27474 8.16675C7.79149 8.16675 7.39974 7.775 7.39974 7.29175V2.04175Z" fill="#737682"></path><path d="M19.6497 2.04175C19.6497 1.5585 20.0415 1.16675 20.5247 1.16675C21.008 1.16675 21.3997 1.5585 21.3997 2.04175V7.29175C21.3997 7.775 21.008 8.16675 20.5247 8.16675C20.0415 8.16675 19.6497 7.775 19.6497 7.29175V2.04175Z" fill="#737682"></path><path d="M6.23307 11.3751C6.23307 10.8918 6.62482 10.5001 7.10807 10.5001H21.6914C22.1747 10.5001 22.5664 10.8918 22.5664 11.3751C22.5664 11.8583 22.1747 12.2501 21.6914 12.2501H7.10807C6.62482 12.2501 6.23307 11.8583 6.23307 11.3751Z" fill="#737682"></path><path d="M6.23307 16.3334C6.23307 15.6891 6.75541 15.1667 7.39974 15.1667C8.04407 15.1667 8.56641 15.6891 8.56641 16.3334C8.56641 16.9777 8.04407 17.5001 7.39974 17.5001C6.75541 17.5001 6.23307 16.9777 6.23307 16.3334Z" fill="#737682"></path><path d="M6.23307 21.0001C6.23307 20.3557 6.75541 19.8334 7.39974 19.8334C8.04407 19.8334 8.56641 20.3557 8.56641 21.0001C8.56641 21.6444 8.04407 22.1667 7.39974 22.1667C6.75541 22.1667 6.23307 21.6444 6.23307 21.0001Z" fill="#737682"></path><path d="M10.8997 16.3334C10.8997 15.6891 11.4221 15.1667 12.0664 15.1667C12.7107 15.1667 13.2331 15.6891 13.2331 16.3334C13.2331 16.9777 12.7107 17.5001 12.0664 17.5001C11.4221 17.5001 10.8997 16.9777 10.8997 16.3334Z" fill="#737682"></path><path d="M10.8997 21.0001C10.8997 20.3557 11.4221 19.8334 12.0664 19.8334C12.7107 19.8334 13.2331 20.3557 13.2331 21.0001C13.2331 21.6444 12.7107 22.1667 12.0664 22.1667C11.4221 22.1667 10.8997 21.6444 10.8997 21.0001Z" fill="#737682"></path><path d="M15.5664 16.3334C15.5664 15.6891 16.0887 15.1667 16.7331 15.1667C17.3774 15.1667 17.8997 15.6891 17.8997 16.3334C17.8997 16.9777 17.3774 17.5001 16.7331 17.5001C16.0887 17.5001 15.5664 16.9777 15.5664 16.3334Z" fill="#737682"></path><path d="M15.5664 21.0001C15.5664 20.3557 16.0887 19.8334 16.7331 19.8334C17.3774 19.8334 17.8997 20.3557 17.8997 21.0001C17.8997 21.6444 17.3774 22.1667 16.7331 22.1667C16.0887 22.1667 15.5664 21.6444 15.5664 21.0001Z" fill="#737682"></path><path d="M20.2331 16.3334C20.2331 15.6891 20.7554 15.1667 21.3997 15.1667C22.0441 15.1667 22.5664 15.6891 22.5664 16.3334C22.5664 16.9777 22.0441 17.5001 21.3997 17.5001C20.7554 17.5001 20.2331 16.9777 20.2331 16.3334Z" fill="#737682"></path><path d="M20.2331 21.0001C20.2331 20.3557 20.7554 19.8334 21.3997 19.8334C22.0441 19.8334 22.5664 20.3557 22.5664 21.0001C22.5664 21.6444 22.0441 22.1667 21.3997 22.1667C20.7554 22.1667 20.2331 21.6444 20.2331 21.0001Z" fill="#737682"></path></svg>