<svg width="40" height="40" viewBox="0 0 40 40" fill="none" xmlns="http://www.w3.org/2000/svg" alt="Notifications" className="header__logo--notifications "><rect width="40" height="40" rx="20" fill="#F1F2F4"></rect><path fill-rule="evenodd" clip-rule="evenodd" d="M18.1523 30.6338C17.6184 30.2338 17.2283 29.6717 17.0405 29.0315L18.9596 28.4685C19.0259 28.6942 19.1633 28.8923 19.3514 29.0331C19.5394 29.1739 19.7678 29.25 20.0026 29.25C20.2373 29.25 20.4658 29.1739 20.6538 29.0331C20.8418 28.8923 20.9793 28.6942 21.0455 28.4685L22.9646 29.0315C22.7768 29.6717 22.3868 30.2339 21.8528 30.6338C21.3189 31.0338 20.6697 31.25 20.0026 31.25C19.3354 31.25 18.6863 31.0338 18.1523 30.6338Z" fill="#737682"></path><path fill-rule="evenodd" clip-rule="evenodd" d="M20.0001 9C20.5524 9 21.0001 9.44772 21.0001 10V11C21.0001 11.5523 20.5524 12 20.0001 12C19.4478 12 19.0001 11.5523 19.0001 11V10C19.0001 9.44772 19.4478 9 20.0001 9Z" fill="#737682"></path><path d="M14.4833 13.2316C15.9465 11.8027 17.9309 11 20.0001 11C22.0693 11 24.0537 11.8027 25.5168 13.2316C26.98 14.6604 27.8019 16.5984 27.8019 18.619C27.8019 22.3991 28.7331 24.6302 29.5014 25.8278C29.7634 26.2362 29.4376 27 28.9523 27H11.0478C10.5626 27 10.2368 26.2362 10.4988 25.8278C11.2671 24.6302 12.1982 22.3991 12.1982 18.619C12.1982 16.5984 13.0202 14.6604 14.4833 13.2316Z" fill="#737682"></path></svg>