<svg width="28" height="28" viewBox="0 0 28 28" fill="none" xmlns="http://www.w3.org/2000/svg"><path fill-rule="evenodd" clip-rule="evenodd" d="M14.1865 3.62606C14.0785 3.53627 13.9217 3.53627 13.8137 3.62606L5.2501 10.7422V23.625C5.2501 23.7861 5.38068 23.9167 5.54177 23.9167H10.2084V17.2084C10.2084 16.0808 11.1225 15.1667 12.2501 15.1667H15.7501C16.8777 15.1667 17.7918 16.0808 17.7918 17.2084V23.9167H22.4584C22.6195 23.9167 22.7501 23.7861 22.7501 23.625V10.7422L14.1865 3.62606ZM24.5001 12.1964L26.2742 13.6706C26.6459 13.9795 27.1976 13.9285 27.5064 13.5569C27.8153 13.1852 27.7643 12.6335 27.3927 12.3247L15.305 2.28011C14.5486 1.65158 13.4516 1.65158 12.6952 2.28011L0.607547 12.3247C0.235874 12.6335 0.184946 13.1852 0.493796 13.5569C0.802647 13.9285 1.35432 13.9795 1.72599 13.6706L3.5001 12.1964V23.625C3.5001 24.7526 4.41418 25.6667 5.54177 25.6667H22.4584C23.586 25.6667 24.5001 24.7526 24.5001 23.625V12.1964ZM16.0418 23.9167V17.2084C16.0418 17.0473 15.9112 16.9167 15.7501 16.9167H12.2501C12.089 16.9167 11.9584 17.0473 11.9584 17.2084V23.9167H16.0418Z" fill="#737682"></path></svg>