<svg width="28" height="28" viewBox="0 0 28 28" fill="none" xmlns="http://www.w3.org/2000/svg"><path fill-rule="evenodd" clip-rule="evenodd" d="M21.276 2.34167C23.7249 2.4844 25.6668 4.51558 25.6668 7.00033V22.167C25.6668 24.7443 23.5775 26.8337 21.0002 26.8337H7.00016C4.42283 26.8337 2.3335 24.7443 2.3335 22.167V7.00033C2.3335 4.51558 4.27542 2.4844 6.72437 2.34167C7.12666 1.63982 7.8832 1.16699 8.75016 1.16699H19.2502C20.1171 1.16699 20.8737 1.63982 21.276 2.34167ZM6.41683 4.142C5.08552 4.41224 4.0835 5.58927 4.0835 7.00033V22.167C4.0835 23.7778 5.38933 25.0837 7.00016 25.0837H21.0002C22.611 25.0837 23.9168 23.7778 23.9168 22.167V7.00033C23.9168 5.58927 22.9148 4.41224 21.5835 4.142V5.83366C21.5835 7.12232 20.5388 8.16699 19.2502 8.16699H8.75016C7.4615 8.16699 6.41683 7.12232 6.41683 5.83366V4.142ZM8.16683 3.50033C8.16683 3.17816 8.428 2.91699 8.75016 2.91699H19.2502C19.5723 2.91699 19.8335 3.17816 19.8335 3.50033V5.83366C19.8335 6.15582 19.5723 6.41699 19.2502 6.41699H8.75016C8.428 6.41699 8.16683 6.15582 8.16683 5.83366V3.50033ZM20.4522 12.2857C20.7939 11.944 20.7939 11.39 20.4522 11.0483C20.1105 10.7066 19.5565 10.7066 19.2148 11.0483L11.6668 18.5962L8.78555 15.7149C8.44384 15.3732 7.88982 15.3732 7.54811 15.7149C7.2064 16.0566 7.2064 16.6107 7.54811 16.9524L11.0481 20.4524C11.3898 20.7941 11.9438 20.7941 12.2855 20.4524L20.4522 12.2857Z" fill="#737682"></path></svg>