<svg width="28" height="28" viewBox="0 0 28 28" fill="none" xmlns="http://www.w3.org/2000/svg"><path fill-rule="evenodd" clip-rule="evenodd" d="M2.94061 13.5795V13.6394C2.94061 17.1268 4.31537 19.7444 6.43459 21.4613L7.0149 21.9315L7.25285 24.7868L10.2251 23.415L10.813 23.5542C11.8175 23.792 12.8907 23.9166 14.012 23.9166C20.8487 23.9166 25.0834 19.0508 25.0834 13.6394C25.0834 7.14045 20.2375 2.91663 14.012 2.91663C7.75364 2.91663 2.56036 8.03013 2.93652 13.5197L2.94061 13.5795ZM26.8334 13.6394C26.8334 20.0358 21.7965 25.6666 14.012 25.6666C12.7614 25.6666 11.5526 25.5277 10.4099 25.2571L7.22963 26.7249C6.4943 27.0643 5.64535 26.5696 5.57809 25.7625L5.33297 22.8211C2.78634 20.7579 1.19061 17.632 1.19061 13.6394C0.732759 6.95753 6.93095 1.16663 14.012 1.16663C21.0931 1.16663 26.8334 6.06663 26.8334 13.6394Z" fill="#737682"></path><path fill-rule="evenodd" clip-rule="evenodd" d="M19.2501 15.1666C20.2166 15.1666 21.0001 14.3831 21.0001 13.4166C21.0001 12.4501 20.2166 11.6666 19.2501 11.6666C18.2836 11.6666 17.5001 12.4501 17.5001 13.4166C17.5001 14.3831 18.2836 15.1666 19.2501 15.1666Z" fill="#737682"></path><path fill-rule="evenodd" clip-rule="evenodd" d="M14.0001 15.1666C14.9666 15.1666 15.7501 14.3831 15.7501 13.4166C15.7501 12.4501 14.9666 11.6666 14.0001 11.6666C13.0336 11.6666 12.2501 12.4501 12.2501 13.4166C12.2501 14.3831 13.0336 15.1666 14.0001 15.1666Z" fill="#737682"></path><path fill-rule="evenodd" clip-rule="evenodd" d="M8.7501 15.1666C9.7166 15.1666 10.5001 14.3831 10.5001 13.4166C10.5001 12.4501 9.7166 11.6666 8.7501 11.6666C7.7836 11.6666 7.0001 12.4501 7.0001 13.4166C7.0001 14.3831 7.7836 15.1666 8.7501 15.1666Z" fill="#737682"></path></svg>